<svg width="172" height="103" viewBox="0 0 172 103" fill="none" xmlns="http://www.w3.org/2000/svg">
<path d="M42.1016 52.0234L68.8203 0.625H84.1484L48.8516 64.8203V103H35.3516V64.8203L0.0546875 0.625H15.5234L42.1016 52.0234ZM97.3672 103V0.625H126.266C135.172 0.625 143.047 2.59375 149.891 6.53125C156.734 10.4688 162.008 16.0703 165.711 23.3359C169.461 30.6016 171.359 38.9453 171.406 48.3672V54.9062C171.406 64.5625 169.531 73.0234 165.781 80.2891C162.078 87.5547 156.758 93.1328 149.82 97.0234C142.93 100.914 134.891 102.906 125.703 103H97.3672ZM110.867 11.7344V91.9609H125.07C135.477 91.9609 143.562 88.7266 149.328 82.2578C155.141 75.7891 158.047 66.5781 158.047 54.625V48.6484C158.047 37.0234 155.305 28 149.82 21.5781C144.383 15.1094 136.648 11.8281 126.617 11.7344H110.867Z" fill="#09F755"/>
<path d="M42.1016 52.0234L68.8203 0.625H84.1484L48.8516 64.8203V103H35.3516V64.8203L0.0546875 0.625H15.5234L42.1016 52.0234ZM97.3672 103V0.625H126.266C135.172 0.625 143.047 2.59375 149.891 6.53125C156.734 10.4688 162.008 16.0703 165.711 23.3359C169.461 30.6016 171.359 38.9453 171.406 48.3672V54.9062C171.406 64.5625 169.531 73.0234 165.781 80.2891C162.078 87.5547 156.758 93.1328 149.82 97.0234C142.93 100.914 134.891 102.906 125.703 103H97.3672ZM110.867 11.7344V91.9609H125.07C135.477 91.9609 143.562 88.7266 149.328 82.2578C155.141 75.7891 158.047 66.5781 158.047 54.625V48.6484C158.047 37.0234 155.305 28 149.82 21.5781C144.383 15.1094 136.648 11.8281 126.617 11.7344H110.867Z" fill="black" fill-opacity="0.2"/>
</svg>
